<?xml version="1.0" standalone="no"?>
<!DOCTYPE svg PUBLIC "-//W3C//DTD SVG 20010904//EN"
 "http://www.w3.org/TR/2001/REC-SVG-20010904/DTD/svg10.dtd">
<svg version="1.0" xmlns="http://www.w3.org/2000/svg"
 width="1239.000000pt" height="1068.000000pt" viewBox="0 0 1239.000000 1068.000000"
 preserveAspectRatio="xMidYMid meet">

<g transform="translate(0.000000,1068.000000) scale(0.100000,-0.100000)"
fill="#000000" stroke="none">
<path d="M9465 10209 c-165 -32 -322 -63 -350 -69 -27 -5 -147 -28 -265 -50
-118 -23 -271 -51 -340 -65 -69 -13 -188 -36 -265 -50 -125 -24 -252 -48 -815
-155 -704 -134 -664 -127 -1190 -226 -102 -19 -205 -39 -230 -44 -25 -5 -119
-23 -210 -40 -305 -57 -534 -101 -605 -115 -38 -8 -216 -42 -395 -75 -179 -34
-500 -95 -715 -136 -214 -41 -460 -88 -545 -104 -85 -16 -273 -52 -418 -80
-144 -27 -264 -50 -267 -50 -3 0 -5 -20 -5 -45 0 -54 -44 -51 378 -26 174 11
409 25 522 31 113 5 246 12 295 15 50 3 86 3 80 0 -5 -2 -154 -30 -330 -60
-176 -31 -383 -68 -460 -81 -77 -14 -203 -35 -280 -49 -77 -13 -154 -27 -172
-31 l-31 -6 -6 -82 c-3 -44 -8 -169 -11 -276 -3 -107 -12 -357 -20 -555 -15
-364 -20 -518 -30 -810 -3 -88 -8 -202 -11 -254 l-6 -95 67 100 c123 180 293
384 424 508 l62 59 15 96 c8 53 21 146 30 206 8 61 40 281 70 490 30 209 54
383 54 386 0 7 53 15 205 29 55 5 215 21 355 34 140 14 372 37 515 51 143 14
305 30 360 35 55 6 152 15 215 20 63 6 176 17 250 25 74 8 187 19 250 25 161
15 373 35 670 65 140 14 370 36 510 50 140 13 372 36 515 50 143 14 355 34
470 45 116 11 251 24 300 30 50 5 185 19 300 30 116 11 248 25 294 30 47 5 87
8 89 5 5 -5 16 -102 37 -320 8 -88 22 -227 30 -310 8 -82 24 -244 35 -360 11
-115 25 -253 30 -305 12 -111 76 -768 86 -883 l7 -78 -39 7 c-21 4 -69 27
-107 52 -75 48 -175 96 -275 132 -56 21 -73 34 -148 116 -47 51 -143 145 -213
209 -672 612 -1525 945 -2425 945 -189 1 -266 -4 -471 -29 -37 -5 5 -6 110 -5
188 4 175 -6 -35 -26 -69 -7 -126 -13 -127 -14 -1 0 98 -2 220 -2 462 -3 856
-85 1264 -264 368 -161 677 -374 973 -668 172 -172 169 -163 55 -177 -138 -16
-292 -63 -443 -135 -481 -229 -812 -666 -903 -1192 -29 -167 -24 -459 10 -613
129 -578 533 -1030 1083 -1209 169 -56 428 -94 547 -81 184 20 246 29 331 51
161 41 541 178 825 296 l150 63 7 40 c4 22 7 85 7 140 l1 99 -42 -40 c-118
-111 -169 -139 -95 -52 144 172 257 400 321 650 33 126 48 342 36 503 -4 66
-6 188 -4 270 8 256 53 1790 64 2175 6 201 13 417 15 480 2 63 9 286 15 495 6
209 15 520 20 690 6 171 10 363 10 428 0 67 5 127 11 139 8 15 8 19 0 14 -14
-9 -14 0 -1 25 6 10 9 18 8 18 -2 -1 -138 -28 -303 -60z"/>
<path d="M2890 6415 c-209 -283 -368 -696 -416 -1084 -19 -156 -18 -486 2
-641 29 -223 100 -465 189 -645 l45 -90 -4 60 c-3 33 -14 121 -25 195 -11 74
-25 182 -31 239 -13 133 -13 593 0 719 42 396 113 722 235 1091 30 90 53 167
50 171 -3 5 -1 10 5 12 5 2 6 9 1 17 -6 10 -20 -2 -51 -44z"/>
<path d="M2575 6403 c-85 -19 -206 -63 -288 -104 -139 -69 -237 -140 -347
-249 -300 -299 -430 -704 -365 -1139 53 -354 266 -685 566 -878 l87 -55 22
-112 c58 -297 153 -587 285 -871 55 -118 65 -131 130 -161 47 -22 61 -24 245
-24 137 1 190 4 178 11 -23 13 -23 29 -1 29 15 0 15 1 1 13 -25 20 -153 181
-222 280 -100 144 -173 270 -252 432 -204 421 -305 834 -321 1310 -14 438 83
921 270 1344 50 112 67 182 44 180 -7 -1 -21 -3 -32 -6z"/>
<path d="M9979 5564 c63 -7 116 -16 119 -19 3 -3 -48 -5 -114 -6 l-119 -1 105
-13 c58 -7 162 -25 232 -39 489 -100 682 -278 564 -521 -212 -435 -1313 -988
-2941 -1478 -225 -68 -857 -239 -985 -267 -19 -4 -62 -15 -96 -24 -33 -8 -94
-23 -135 -31 -41 -8 -146 -31 -234 -50 -826 -181 -1697 -321 -2375 -380 -102
-8 -231 -20 -287 -25 -55 -5 -259 -15 -452 -21 -977 -33 -1615 69 -1833 293
-57 58 -84 133 -73 201 21 126 154 291 360 447 39 29 72 55 75 57 3 3 -20 -7
-50 -21 l-55 -27 30 28 c17 15 41 36 55 46 40 28 -192 -88 -319 -160 -290
-164 -495 -309 -656 -464 -174 -168 -247 -297 -248 -439 0 -192 147 -332 456
-435 832 -277 2681 -199 4787 201 900 171 1765 382 2575 626 110 33 223 67
250 75 28 7 57 17 65 22 8 4 49 18 90 31 769 237 1681 613 2200 908 63 36 145
80 181 98 36 18 72 41 80 50 7 9 45 38 84 64 203 137 388 307 471 431 203 306
72 551 -372 697 -311 103 -759 158 -1294 160 l-255 0 114 -14z"/>
<path d="M8950 3048 c-144 -45 -579 -171 -755 -218 -66 -17 -140 -38 -165 -46
-25 -7 -101 -27 -170 -44 l-124 -31 -81 -72 c-139 -125 -197 -173 -315 -257
-459 -329 -1002 -531 -1560 -580 -148 -13 -442 -13 -595 1 -240 20 -552 88
-760 164 -129 48 -153 50 -277 31 -137 -21 -691 -86 -736 -86 -34 0 -35 0 -17
-20 17 -19 17 -20 0 -20 -17 0 -17 -1 0 -20 30 -34 193 -163 313 -248 470
-337 1039 -565 1588 -637 164 -21 845 -21 1011 0 732 96 1483 468 2017 1000
211 210 342 368 493 595 113 170 285 490 262 490 -6 0 -6 7 1 20 13 25 20 26
-130 -22z"/>
</g>
</svg>
